<svg version="1.1" id="Layer_1" xmlns="http://www.w3.org/2000/svg" xmlns:xlink="http://www.w3.org/1999/xlink" x="0px" y="0px"
	 width="100%" viewBox="0 0 512 512" enable-background="new 0 0 512 512" xml:space="preserve">
<path fill="#4161AF" opacity="1.000000" stroke="none" 
	d="
M1.000000,413.000000 
	C1.000000,309.312439 1.000000,205.624878 1.394900,101.592819 
	C3.169635,96.801208 4.646177,92.381470 5.913222,87.902458 
	C12.842942,63.405853 26.597836,43.298203 46.237305,27.473377 
	C61.829689,14.909559 79.635063,6.430545 99.560593,2.870706 
	C100.133514,2.768349 100.524292,1.646492 101.000000,1.000000 
	C204.687561,1.000000 308.375122,1.000000 412.380493,1.390003 
	C420.256989,4.180851 427.922089,6.293417 435.353912,9.037759 
	C455.875549,16.615782 472.929596,29.304573 486.491516,46.274284 
	C499.001038,61.927082 507.651978,79.644142 511.132996,99.622368 
	C511.229004,100.173286 512.354553,100.544823 513.000000,101.000000 
	C513.000000,143.687561 513.000000,186.375122 512.646484,229.462646 
	C508.197266,227.903229 504.101654,225.943848 499.760956,223.750610 
	C489.016296,217.663406 478.516724,211.810059 467.775208,205.726288 
	C456.803436,199.221619 446.129852,192.848434 435.325623,186.705032 
	C426.982239,181.960907 418.475006,177.504959 409.793549,172.696472 
	C408.166504,171.551819 406.834351,170.548416 405.399384,169.723831 
	C385.114227,158.067108 364.845459,146.381104 344.489441,134.849182 
	C341.106720,132.932816 337.328949,131.713806 333.784546,130.079620 
	C333.835358,129.986694 334.021973,130.086868 333.764465,129.889893 
	C333.144379,129.457428 332.781799,129.221954 332.108948,128.937012 
	C314.125641,114.393936 293.254456,107.981155 271.009521,106.192329 
	C254.603882,104.873077 238.070358,105.008171 221.589935,104.793068 
	C205.597473,104.584351 189.598724,104.631935 173.605194,104.800522 
	C161.739777,104.925591 155.077103,110.972046 153.445663,122.673569 
	C153.148285,124.806511 153.143219,126.991776 153.142868,129.152908 
	C153.128616,218.126709 153.163147,307.100525 153.044830,396.074188 
	C153.038055,401.172089 154.452866,404.780640 159.065979,407.096497 
	C167.967773,416.559174 176.980042,425.781067 186.168076,435.285156 
	C194.559738,443.713318 202.775635,451.859314 211.168427,460.286652 
	C217.894608,467.047333 224.443878,473.526703 231.170288,480.287018 
	C236.230331,485.381317 241.113251,490.194672 246.173096,495.288635 
	C250.897797,500.047211 255.445541,504.525116 260.133423,509.320190 
	C260.515717,510.758270 260.757843,511.879120 261.000000,513.000000 
	C207.979111,513.000000 154.958206,513.000000 101.619431,512.609924 
	C93.744308,509.818878 86.078133,507.712036 78.650703,504.960693 
	C58.145622,497.364929 41.003475,484.805817 27.458380,467.777405 
	C14.975192,452.084106 6.408096,434.331512 2.867183,414.378021 
	C2.769151,413.825623 1.645434,413.455261 1.000000,413.000000 
z"/>
<path fill="#375F9B" opacity="1.000000" stroke="none" 
	d="
M210.991516,460.005341 
	C202.775635,451.859314 194.559738,443.713318 186.554123,435.312805 
	C190.410599,436.432007 193.362381,435.207214 196.462769,433.099426 
	C230.172958,410.180969 263.946716,387.355896 297.725830,364.539001 
	C338.676208,336.878052 379.651489,309.254120 420.609802,281.604980 
	C445.846313,264.568939 471.110443,247.572922 496.220886,230.352921 
	C498.069183,229.085434 498.771149,226.146408 500.006012,223.984467 
	C504.101654,225.943848 508.197266,227.903229 512.646484,229.931305 
	C513.000000,239.354233 513.000000,248.708450 512.661011,258.611328 
	C510.612152,260.177979 508.846436,261.113495 507.200470,262.226135 
	C474.252075,284.499695 441.324036,306.803375 408.377899,329.080292 
	C383.150574,346.138092 357.921265,363.192993 332.661743,380.203003 
	C294.838501,405.673523 257.005127,431.129089 219.108963,456.490723 
	C216.698654,458.103821 213.710724,458.853821 210.991516,460.005341 
z"/>
<path fill="#38619F" opacity="1.000000" stroke="none" 
	d="
M211.168427,460.286652 
	C213.710724,458.853821 216.698654,458.103821 219.108963,456.490723 
	C257.005127,431.129089 294.838501,405.673523 332.661743,380.203003 
	C357.921265,363.192993 383.150574,346.138092 408.377899,329.080292 
	C441.324036,306.803375 474.252075,284.499695 507.200470,262.226135 
	C508.846436,261.113495 510.612152,260.177979 512.661011,259.079987 
	C513.000000,269.687561 513.000000,280.375122 512.652710,291.603210 
	C510.697083,292.993286 508.992828,293.700958 507.495331,294.714294 
	C491.373596,305.623596 475.311340,316.620850 459.181122,327.517487 
	C416.850128,356.113831 374.491852,384.669800 332.147491,413.246399 
	C306.907104,430.280273 281.729095,447.407593 256.402771,464.312744 
	C248.127991,469.836090 239.473831,474.791107 230.993164,480.006042 
	C224.443878,473.526703 217.894608,467.047333 211.168427,460.286652 
z"/>
<path fill="#3C69AA" opacity="1.000000" stroke="none" 
	d="
M356.000000,513.000000 
	C337.979095,513.000000 319.958221,513.000000 301.548828,512.665100 
	C302.662659,510.848083 303.979126,509.092987 305.695038,507.924500 
	C334.308289,488.439514 362.934235,468.972687 391.632782,449.613586 
	C430.133270,423.642548 468.692230,397.758148 507.256073,371.881195 
	C509.020630,370.697113 511.078674,369.950439 513.000000,369.000000 
	C513.000000,381.687561 513.000000,394.375122 512.603027,407.549011 
	C509.773926,408.929108 507.060333,409.396698 504.955566,410.786316 
	C491.911560,419.398163 479.015076,428.233124 466.049652,436.964355 
	C430.737579,460.744507 395.403168,484.491547 360.136230,508.338379 
	C358.469055,509.465698 357.365845,511.427063 356.000000,513.000000 
z"/>
<path fill="#3963A1" opacity="1.000000" stroke="none" 
	d="
M231.170288,480.287018 
	C239.473831,474.791107 248.127991,469.836090 256.402771,464.312744 
	C281.729095,447.407593 306.907104,430.280273 332.147491,413.246399 
	C374.491852,384.669800 416.850128,356.113831 459.181122,327.517487 
	C475.311340,316.620850 491.373596,305.623596 507.495331,294.714294 
	C508.992828,293.700958 510.697083,292.993286 512.652710,292.071838 
	C513.000000,299.687592 513.000000,307.375153 512.653076,315.603088 
	C510.698517,316.993225 508.994720,317.701141 507.498016,318.714874 
	C492.486938,328.882141 477.539062,339.142731 462.517731,349.294769 
	C421.718964,376.868164 380.919159,404.440277 340.069580,431.938293 
	C308.751312,453.020294 277.356781,473.988953 245.996155,495.007996 
	C241.113251,490.194672 236.230331,485.381317 231.170288,480.287018 
z"/>
<path fill="#3B67A7" opacity="1.000000" stroke="none" 
	d="
M513.000000,368.531372 
	C511.078674,369.950439 509.020630,370.697113 507.256073,371.881195 
	C468.692230,397.758148 430.133270,423.642548 391.632782,449.613586 
	C362.934235,468.972687 334.308289,488.439514 305.695038,507.924500 
	C303.979126,509.092987 302.662659,510.848083 301.080170,512.665100 
	C287.979095,513.000000 274.958221,513.000000 261.468658,513.000000 
	C260.757843,511.879120 260.515717,510.758270 260.503662,509.293701 
	C262.816864,507.970337 265.062622,507.234802 266.956879,505.971954 
	C280.539856,496.916473 294.053284,487.756592 307.585236,478.624634 
	C348.457397,451.042358 389.315491,423.439148 430.204041,395.881104 
	C454.103912,379.773163 478.037598,363.715118 501.992859,347.689575 
	C505.558075,345.304535 509.325928,343.222351 513.000000,341.000000 
	C513.000000,350.020905 513.000000,359.041779 513.000000,368.531372 
z"/>
<path fill="#3A65A4" opacity="1.000000" stroke="none" 
	d="
M513.000000,340.531372 
	C509.325928,343.222351 505.558075,345.304535 501.992859,347.689575 
	C478.037598,363.715118 454.103912,379.773163 430.204041,395.881104 
	C389.315491,423.439148 348.457397,451.042358 307.585236,478.624634 
	C294.053284,487.756592 280.539856,496.916473 266.956879,505.971954 
	C265.062622,507.234802 262.816864,507.970337 260.363525,508.976501 
	C255.445541,504.525116 250.897797,500.047211 246.173096,495.288635 
	C277.356781,473.988953 308.751312,453.020294 340.069580,431.938293 
	C380.919159,404.440277 421.718964,376.868164 462.517731,349.294769 
	C477.539062,339.142731 492.486938,328.882141 507.498016,318.714874 
	C508.994720,317.701141 510.698517,316.993225 512.653076,316.071716 
	C513.000000,324.020905 513.000000,332.041809 513.000000,340.531372 
z"/>
<path fill="#3E6CAF" opacity="1.000000" stroke="none" 
	d="
M356.468658,513.000000 
	C357.365845,511.427063 358.469055,509.465698 360.136230,508.338379 
	C395.403168,484.491547 430.737579,460.744507 466.049652,436.964355 
	C479.015076,428.233124 491.911560,419.398163 504.955566,410.786316 
	C507.060333,409.396698 509.773926,408.929108 512.603027,408.017639 
	C513.000000,409.388885 513.000000,410.777802 512.618896,412.414856 
	C511.850616,413.163483 511.293152,413.606415 511.101654,414.173004 
	C507.722473,424.171692 504.989838,434.438538 500.910828,444.140076 
	C493.761383,461.144379 482.106323,475.014526 467.793396,486.445587 
	C452.070099,499.003021 434.323303,507.560822 414.348206,511.136292 
	C413.805023,511.233490 413.445251,512.355713 413.000000,513.000000 
	C394.312439,513.000000 375.624878,513.000000 356.468658,513.000000 
z"/>
<path fill="#000000" opacity="1.000000" stroke="none" 
	d="
M413.468628,513.000000 
	C413.445251,512.355713 413.805023,511.233490 414.348206,511.136292 
	C434.323303,507.560822 452.070099,499.003021 467.793396,486.445587 
	C482.106323,475.014526 493.761383,461.144379 500.910828,444.140076 
	C504.989838,434.438538 507.722473,424.171692 511.101654,414.173004 
	C511.293152,413.606415 511.850616,413.163483 512.618896,412.831482 
	C513.000000,446.260254 513.000000,479.520508 513.000000,513.000000 
	C479.979431,513.000000 446.958374,513.000000 413.468628,513.000000 
z"/>
<path fill="#000000" opacity="1.000000" stroke="none" 
	d="
M513.000000,100.531342 
	C512.354553,100.544823 511.229004,100.173286 511.132996,99.622368 
	C507.651978,79.644142 499.001038,61.927082 486.491516,46.274284 
	C472.929596,29.304573 455.875549,16.615782 435.353912,9.037759 
	C427.922089,6.293417 420.256989,4.180851 412.849182,1.390003 
	C446.260254,1.000000 479.520508,1.000000 513.000000,1.000000 
	C513.000000,34.020573 513.000000,67.041626 513.000000,100.531342 
z"/>
<path fill="#000000" opacity="1.000000" stroke="none" 
	d="
M1.000000,413.468658 
	C1.645434,413.455261 2.769151,413.825623 2.867183,414.378021 
	C6.408096,434.331512 14.975192,452.084106 27.458380,467.777405 
	C41.003475,484.805817 58.145622,497.364929 78.650703,504.960693 
	C86.078133,507.712036 93.744308,509.818878 101.150772,512.609924 
	C67.739731,513.000000 34.479465,513.000000 1.000000,513.000000 
	C1.000000,479.979431 1.000000,446.958374 1.000000,413.468658 
z"/>
<path fill="#000000" opacity="1.000000" stroke="none" 
	d="
M100.531342,1.000000 
	C100.524292,1.646492 100.133514,2.768349 99.560593,2.870706 
	C79.635063,6.430545 61.829689,14.909559 46.237305,27.473377 
	C26.597836,43.298203 12.842942,63.405853 5.913222,87.902458 
	C4.646177,92.381470 3.169635,96.801208 1.394900,101.124161 
	C1.000000,67.739731 1.000000,34.479462 1.000000,1.000000 
	C34.020573,1.000000 67.041626,1.000000 100.531342,1.000000 
z"/>
<path fill="#FEFEFE" opacity="1.000000" stroke="none" 
	d="
M159.176437,406.855652 
	C154.452866,404.780640 153.038055,401.172089 153.044830,396.074188 
	C153.163147,307.100525 153.128616,218.126709 153.142868,129.152908 
	C153.143219,126.991776 153.148285,124.806511 153.445663,122.673569 
	C155.077103,110.972046 161.739777,104.925591 173.605194,104.800522 
	C189.598724,104.631935 205.597473,104.584351 221.589935,104.793068 
	C238.070358,105.008171 254.603882,104.873077 271.009521,106.192329 
	C293.254456,107.981155 314.125641,114.393936 332.284424,129.240173 
	C333.187439,129.757492 333.604706,129.922180 334.021973,130.086868 
	C334.021973,130.086868 333.835358,129.986694 333.947205,130.376770 
	C346.675720,142.164139 355.322266,156.114059 358.000153,172.858078 
	C359.899323,184.733154 359.729370,196.939148 360.343872,209.418671 
	C359.235962,222.196671 356.406006,234.100876 351.309204,245.412338 
	C339.431458,271.772644 318.455658,287.445984 291.484772,295.892181 
	C274.322174,301.266785 256.590179,302.611938 238.726425,302.734406 
	C230.947540,302.787720 223.167984,302.743347 215.088654,302.743347 
	C215.088654,328.154663 215.088654,353.076569 215.002289,378.460175 
	C214.904953,384.919922 214.753876,390.921936 214.924927,396.914764 
	C215.076401,402.221588 212.530716,405.562073 207.670532,406.764130 
	C203.081223,407.899170 198.275482,408.125275 193.620834,409.036682 
	C181.928925,411.326050 170.542221,409.392365 159.176437,406.855652 
M214.911438,225.920547 
	C214.911438,235.513214 214.911438,245.105881 214.911438,255.628128 
	C229.567078,255.020462 243.784378,255.476959 257.683014,253.588333 
	C274.826599,251.258774 286.924072,240.980774 292.393921,224.372787 
	C297.893341,207.675064 298.851196,190.839447 290.062378,173.941803 
	C284.813965,164.250839 276.725372,157.939148 266.232025,155.088608 
	C249.467239,150.534409 232.306915,152.549057 215.087479,152.076340 
	C215.087479,176.813644 215.087479,200.905518 214.911438,225.920547 
z"/>
<path fill="#365C96" opacity="1.000000" stroke="none" 
	d="
M159.065979,407.096497 
	C170.542221,409.392365 181.928925,411.326050 193.620834,409.036682 
	C198.275482,408.125275 203.081223,407.899170 207.670532,406.764130 
	C212.530716,405.562073 215.076401,402.221588 214.924927,396.914764 
	C214.753876,390.921936 214.904953,384.919922 215.359741,378.431824 
	C217.567703,377.054779 219.448929,376.342621 221.077072,375.252502 
	C232.282364,367.750153 243.427811,360.158508 254.605392,352.614685 
	C296.419983,324.393707 338.238342,296.178314 380.057648,267.964325 
	C408.075195,249.061905 436.118774,230.197693 464.063141,211.187683 
	C465.775085,210.023102 466.716949,207.726547 468.017120,205.956696 
	C478.516724,211.810059 489.016296,217.663406 499.760956,223.750610 
	C498.771149,226.146408 498.069183,229.085434 496.220886,230.352921 
	C471.110443,247.572922 445.846313,264.568939 420.609802,281.604980 
	C379.651489,309.254120 338.676208,336.878052 297.725830,364.539001 
	C263.946716,387.355896 230.172958,410.180969 196.462769,433.099426 
	C193.362381,435.207214 190.410599,436.432007 186.378342,435.030640 
	C176.980042,425.781067 167.967773,416.559174 159.065979,407.096497 
z"/>
<path fill="#345992" opacity="1.000000" stroke="none" 
	d="
M467.775208,205.726288 
	C466.716949,207.726547 465.775085,210.023102 464.063141,211.187683 
	C436.118774,230.197693 408.075195,249.061905 380.057648,267.964325 
	C338.238342,296.178314 296.419983,324.393707 254.605392,352.614685 
	C243.427811,360.158508 232.282364,367.750153 221.077072,375.252502 
	C219.448929,376.342621 217.567703,377.054779 215.446106,377.970093 
	C215.088654,353.076569 215.088654,328.154663 215.088654,302.743347 
	C223.167984,302.743347 230.947540,302.787720 238.726425,302.734406 
	C256.590179,302.611938 274.322174,301.266785 291.484772,295.892181 
	C318.455658,287.445984 339.431458,271.772644 351.309204,245.412338 
	C356.406006,234.100876 359.235962,222.196671 360.674500,209.378189 
	C361.622253,208.781754 362.175781,208.759384 362.567169,208.496002 
	C377.319977,198.567657 392.110535,188.693054 406.723999,178.563095 
	C408.351288,177.435059 408.959686,174.837128 410.040619,172.920883 
	C418.475006,177.504959 426.982239,181.960907 435.325623,186.705032 
	C446.129852,192.848434 456.803436,199.221619 467.775208,205.726288 
z"/>
<path fill="#32558B" opacity="1.000000" stroke="none" 
	d="
M409.793549,172.696472 
	C408.959686,174.837128 408.351288,177.435059 406.723999,178.563095 
	C392.110535,188.693054 377.319977,198.567657 362.567169,208.496002 
	C362.175781,208.759384 361.622253,208.781754 360.813660,208.956970 
	C359.729370,196.939148 359.899323,184.733154 358.000153,172.858078 
	C355.322266,156.114059 346.675720,142.164139 333.896393,130.469681 
	C337.328949,131.713806 341.106720,132.932816 344.489441,134.849182 
	C364.845459,146.381104 385.114227,158.067108 405.399384,169.723831 
	C406.834351,170.548416 408.166504,171.551819 409.793549,172.696472 
z"/>
<path fill="#32558B" opacity="1.000000" stroke="none" 
	d="
M333.764465,129.889893 
	C333.604706,129.922180 333.187439,129.757492 332.594727,129.289642 
	C332.781799,129.221954 333.144379,129.457428 333.764465,129.889893 
z"/>
<path fill="#305287" opacity="1.000000" stroke="none" 
	d="
M290.203979,174.600708 
	C298.851196,190.839447 297.893341,207.675064 292.393921,224.372787 
	C286.924072,240.980774 274.826599,251.258774 257.683014,253.588333 
	C243.784378,255.476959 229.567078,255.020462 214.911438,255.628128 
	C214.911438,245.105881 214.911438,235.513214 215.357025,225.430969 
	C217.284164,224.242111 218.883484,223.718689 220.229568,222.817169 
	C239.525864,209.893661 258.820190,196.966553 278.033234,183.919922 
	C282.253540,181.054077 286.155457,177.719452 290.203979,174.600708 
z"/>
<path fill="#2F4F82" opacity="1.000000" stroke="none" 
	d="
M290.133179,174.271255 
	C286.155457,177.719452 282.253540,181.054077 278.033234,183.919922 
	C258.820190,196.966553 239.525864,209.893661 220.229568,222.817169 
	C218.883484,223.718689 217.284164,224.242111 215.445038,224.969391 
	C215.087479,200.905518 215.087479,176.813644 215.087479,152.076340 
	C232.306915,152.549057 249.467239,150.534409 266.232025,155.088608 
	C276.725372,157.939148 284.813965,164.250839 290.133179,174.271255 
z"/>
</svg>